<svg width="156.34003906249998px" height="68.02519531249999px" xmlns="http://www.w3.org/2000/svg" viewBox="171.82998046875002 40.987402343750006 156.34003906249998 68.02519531249999" style="background: rgba(255, 255, 255, 0);" preserveAspectRatio="xMidYMid"><defs><linearGradient id="editing-glowing-gradient" x1="0" x2="1" y1="0.5000000000000001" y2="0.4999999999999999"><stop offset="0" stop-color="#00ebfe"></stop><stop offset="1" stop-color="#f40000"></stop></linearGradient><filter id="editing-glowing" x="-100%" y="-100%" width="300%" height="300%"><feGaussianBlur in="SourceGraphic" result="blur" stdDeviation="10"></feGaussianBlur><feMerge><feMergeNode in="blur"></feMergeNode><feMergeNode in="SourceGraphic"></feMergeNode></feMerge></filter></defs><g filter="url(#editing-glowing)"><g transform="translate(203.098237067461, 89.25498580932617)"><path d="M3.78-22.45L3.78-22.45L8.66-22.45L8.66-22.45Q11.16-22.45 12.43-21.39L12.43-21.39L12.43-21.39Q13.70-20.33 13.73-18.27L13.73-18.27L13.73-18.27Q13.76-16.21 12.97-14.04L12.97-14.04L12.97-14.04Q12.19-11.87 10.76-10.85L10.76-10.85L10.76-10.85Q9.34-9.82 7.63-9.56L7.63-9.56L7.63-9.56Q5.92-9.29 4.31-9.26L4.31-9.26L2.10-0.68L2.10-0.68Q1.92 0 1.18 0L1.18 0L0.29 0L0.29 0Q-0.09 0-0.26-0.28L-0.26-0.28L-0.26-0.28Q-0.44-0.56-0.33-0.95L-0.33-0.95L4.59-20.33L4.59-20.33Q3.81-20.33 3.49-20.33L3.49-20.33L3.49-20.33Q3.16-20.33 2.97-20.59L2.97-20.59L2.97-20.59Q2.79-20.86 2.89-21.21L2.89-21.21L3.07-21.83L3.07-21.83Q3.13-22.07 3.35-22.26L3.35-22.26L3.35-22.26Q3.57-22.45 3.78-22.45ZM7.10-20.30L7.10-20.30L4.84-11.41L6.57-11.50L6.57-11.50Q9.05-11.69 9.83-13.08L9.83-13.08L9.83-13.08Q10.61-14.47 10.91-15.93L10.91-15.93L10.91-15.93Q11.22-17.39 11.22-18.35L11.22-18.35L11.22-18.35Q11.22-20.18 9.11-20.27L9.11-20.27L9.11-20.27Q8.75-20.30 7.10-20.30ZM19.06-15.94L19.06-15.94L19.53-15.94L19.53-15.94Q20.59-15.94 21.48-15.13L21.48-15.13L21.48-15.13Q22.37-14.32 22.93-13.14L22.93-13.14L22.93-13.14Q23.25-12.49 22.72-12.15L22.72-12.15L21.78-11.63L21.78-11.63Q21.13-11.16 20.86-11.78L20.86-11.78L20.86-11.78Q20.83-11.84 20.61-12.35L20.61-12.35L20.61-12.35Q20.39-12.87 20.25-13.09L20.25-13.09L20.25-13.09Q20.12-13.31 19.78-13.58L19.78-13.58L19.78-13.58Q19.44-13.85 19.00-13.93L19.00-13.93L19.00-13.93Q18.22-13.76 17.54-12.90L17.54-12.90L17.54-12.90Q16.86-12.03 16.86-10.44L16.86-10.44L16.86-10.44Q16.86-9.76 17.19-9.50L17.19-9.50L17.19-9.50Q17.51-9.23 18.35-9.05L18.35-9.05L19.21-8.87L19.21-8.87Q21.10-8.46 21.10-5.74L21.10-5.74L21.10-5.74Q21.10-4.12 19.89-2.01L19.89-2.01L19.89-2.01Q19.31-1.03 18.32-0.34L18.32-0.34L18.32-0.34Q17.32 0.35 16.15 0.35L16.15 0.35L15.92 0.35L15.92 0.35Q14.74 0.35 13.82-0.48L13.82-0.48L13.82-0.48Q12.90-1.30 12.52-2.16L12.52-2.16L12.52-2.16Q12.14-3.01 12.52-3.44L12.52-3.44L13.20-4.00L13.20-4.00Q13.52-4.31 13.89-4.28L13.89-4.28L13.89-4.28Q14.26-4.25 14.40-3.74L14.40-3.74L14.40-3.74Q14.53-3.22 15.15-2.50L15.15-2.50L15.15-2.50Q15.77-1.77 16.30-1.74L16.30-1.74L16.30-1.74Q17.23-1.89 17.91-2.84L17.91-2.84L17.91-2.84Q18.59-3.78 18.59-5.01L18.59-5.01L18.59-5.01Q18.59-6.24 18.36-6.58L18.36-6.58L18.36-6.58Q18.13-6.92 17.32-7.10L17.32-7.10L16.64-7.25L16.64-7.25Q15.44-7.54 14.94-8.25L14.94-8.25L14.94-8.25Q14.44-8.96 14.44-10.17L14.44-10.17L14.44-10.17Q14.44-12.19 15.88-14.06L15.88-14.06L15.88-14.06Q17.32-15.94 19.06-15.94ZM34.18-15.74L34.18-15.74L35.36-15.74L35.36-15.74Q35.56-15.74 35.68-15.50L35.68-15.50L35.68-15.50Q35.80-15.26 35.71-14.94L35.71-14.94L31.15 1.54L31.15 1.54Q30.41 4.40 28.70 5.33L28.70 5.33L28.70 5.33Q27.96 5.74 27.70 5.83L27.70 5.83L27.70 5.83Q27.08 6.10 25.88 5.36L25.88 5.36L22.72 3.57L22.72 3.57Q22.31 3.38 22.28 3.02L22.28 3.02L22.28 3.02Q22.25 2.66 22.46 2.45L22.46 2.45L22.93 1.80L22.93 1.80Q23.43 1.27 23.96 1.54L23.96 1.54L27.40 3.66L27.40 3.66Q28.08 4.03 28.43 2.82L28.43 2.82L31.42-7.81L30.71-6.45L28.88-3.38L28.88-3.38Q27.90-1.68 26.88-0.84L26.88-0.84L26.88-0.84Q25.85 0 25.07 0L25.07 0L24.88 0L24.88 0Q24.23 0 23.79-0.47L23.79-0.47L23.79-0.47Q22.72-1.65 23.31-3.78L23.31-3.78L26.47-15.32L26.47-15.32Q26.60-15.74 26.96-15.74L26.96-15.74L28.58-15.74L28.58-15.74Q29.05-15.74 28.82-15.00L28.82-15.00L25.69-4.25L25.69-4.25Q25.44-3.28 25.63-3.04L25.63-3.04L25.63-3.04Q25.97-2.51 27.20-4.34L27.20-4.34L27.20-4.34Q28.43-6.18 33.44-15.32L33.44-15.32L33.44-15.32Q33.69-15.74 34.18-15.74ZM44.67-15.12L44.67-15.12L44.67-15.12Q44.79-15.85 45.38-15.85L45.38-15.85L46.09-15.88L46.09-15.88Q47.23-15.85 46.92-14.76L46.92-14.76L43.20-2.36L43.20-2.36Q44.17-3.07 45.12-4.40L45.12-4.40L45.12-4.40Q45.47-4.90 45.89-4.62L45.89-4.62L46.65-4.12L46.65-4.12Q47.14-3.78 46.80-3.35L46.80-3.35L46.80-3.35Q45.53-1.86 44.46-1.04L44.46-1.04L44.46-1.04Q43.40-0.21 41.93 0.12L41.93 0.12L41.93 0.12Q41.50 0.18 41.37-0.21L41.37-0.21L40.79-1.92L40.79-1.92Q39.92-0.77 39.29-0.34L39.29-0.34L39.29-0.34Q38.67 0.09 38.34 0.09L38.34 0.09L38.28 0.09L38.28 0.09Q38.02 0.09 37.52-0.26L37.52-0.26L37.52-0.26Q37.01-0.62 36.51-1.20L36.51-1.20L36.51-1.20Q36.01-1.77 35.79-2.45L35.79-2.45L35.79-2.45Q35.57-3.13 35.82-4.93L35.82-4.93L35.82-4.93Q36.07-6.72 37.24-9.94L37.24-9.94L37.24-9.94Q38.40-13.17 39.63-14.44L39.63-14.44L39.63-14.44Q40.85-15.71 42.70-15.68L42.70-15.68L42.70-15.68Q43.73-15.68 44.67-15.12ZM44.20-13.40L44.20-13.40L44.20-13.40Q42.55-14.32 41.51-13.43L41.51-13.43L41.51-13.43Q40.48-12.55 39.48-9.82L39.48-9.82L39.48-9.82Q38.49-7.10 38.20-5.55L38.20-5.55L38.20-5.55Q37.90-4.00 37.95-3.44L37.95-3.44L37.95-3.44Q37.99-2.88 38.49-2.62L38.49-2.62L38.49-2.62Q38.99-2.36 40.15-3.63L40.15-3.63L40.15-3.63Q41.31-4.90 42.18-7.11L42.18-7.11L42.18-7.11Q43.05-9.32 44.20-13.40ZM53.28-14.85L50.95-7.04L54.17-12.37L54.17-12.37Q55.20-14.05 56.29-14.89L56.29-14.89L56.29-14.89Q57.37-15.74 58.14-15.74L58.14-15.74L58.79-15.74L58.79-15.74Q59.29-15.74 59.57-15.58L59.57-15.58L59.57-15.58Q59.85-15.41 60.02-14.82L60.02-14.82L60.02-14.82Q60.20-14.23 59.85-13.08L59.85-13.08L56.38-0.44L56.38-0.44Q56.29 0 55.88 0L55.88 0L54.27 0L54.27 0Q53.81 0 54.02-0.74L54.02-0.74L57.28-11.38L57.28-11.38Q57.52-12.22 57.52-12.48L57.52-12.48L57.52-12.48Q57.52-12.75 57.31-12.75L57.31-12.75L57.31-12.75Q57.10-12.75 56.80-12.47L56.80-12.47L56.80-12.47Q56.51-12.19 56.01-11.44L56.01-11.44L56.01-11.44Q55.42-10.60 54.58-9.25L54.58-9.25L54.58-9.25Q53.75-7.90 52.48-5.92L52.48-5.92L52.48-5.92Q50.09-2.27 49.09-0.44L49.09-0.44L49.09-0.44Q48.85 0 48.35 0L48.35 0L47.48 0L47.48 0Q47.30 0 47.17-0.25L47.17-0.25L47.17-0.25Q47.04-0.50 47.14-0.80L47.14-0.80L50.89-14.94L50.89-14.94Q51.04-15.74 51.51-15.74L51.51-15.74L52.78-15.74L52.78-15.74Q53.52-15.74 53.28-14.85L53.28-14.85ZM68.02-20.53L68.02-20.53L66.81-15.74L68.42-15.74L68.42-15.74Q69.10-15.74 68.89-15.06L68.89-15.06L68.68-14.26L68.68-14.26Q68.45-13.58 67.86-13.58L67.86-13.58L66.25-13.58L62.97-0.68L62.97-0.68Q62.79 0 62.03 0L62.03 0L61.46 0L61.46 0Q60.96 0 60.75-0.28L60.75-0.28L60.75-0.28Q60.55-0.56 60.64-1.00L60.64-1.00L63.86-13.58L62.62-13.58L62.62-13.58Q62-13.58 62.23-14.32L62.23-14.32L62.47-15.15L62.47-15.15Q62.65-15.74 63.15-15.74L63.15-15.74L64.39-15.74L65.63-20.56L65.63-20.56Q65.81-21.24 66.56-21.24L66.56-21.24L67.34-21.24L67.34-21.24Q68.21-21.24 68.02-20.53ZM72.73-20.46L72.73-20.46L73.02-20.46L73.02-20.46Q73.53-20.46 73.97-20.00L73.97-20.00L73.97-20.00Q74.41-19.53 74.41-18.92L74.41-18.92L74.41-18.92Q74.41-18.32 73.96-17.88L73.96-17.88L73.96-17.88Q73.50-17.45 72.82-17.45L72.82-17.45L72.58-17.45L72.58-17.45Q72.05-17.45 71.63-17.90L71.63-17.90L71.63-17.90Q71.22-18.35 71.22-18.95L71.22-18.95L71.22-18.95Q71.22-19.56 71.65-20.01L71.65-20.01L71.65-20.01Q72.08-20.46 72.73-20.46ZM73.29-15.09L73.29-15.09L69.54-0.68L69.54-0.68Q69.36 0 68.61 0L68.61 0L67.71 0L67.71 0Q66.84 0 67.03-0.71L67.03-0.71L70.81-15.12L70.81-15.12Q70.96-15.74 71.67-15.74L71.67-15.74L72.70-15.74L72.70-15.74Q73.11-15.74 73.25-15.61L73.25-15.61L73.25-15.61Q73.38-15.47 73.29-15.09ZM83.02-14.02L83.02-14.02L83.02-14.02Q83.52-13.49 83.15-13.05L83.15-13.05L82.63-12.46L82.63-12.46Q82.10-11.87 81.69-12.31L81.69-12.31L81.36-12.68L81.36-12.68Q80.24-13.82 79.59-13.67L79.59-13.67L79.59-13.67Q78.47-13.46 77.23-11.28L77.23-11.28L77.23-11.28Q75.99-9.11 75.45-6.80L75.45-6.80L75.45-6.80Q74.91-4.50 75.18-2.95L75.18-2.95L75.18-2.95Q75.24-2.57 75.76-2.26L75.76-2.26L75.76-2.26Q76.27-1.95 76.55-2.01L76.55-2.01L76.55-2.01Q77.48-2.51 78.62-3.88L78.62-3.88L78.62-3.88Q78.97-4.34 79.62-3.94L79.62-3.94L80.09-3.63L80.09-3.63Q81.07-3.04 78.41-0.89L78.41-0.89L78.41-0.89Q77.29 0.06 76.67 0.23L76.67 0.23L76.67 0.23Q76.05 0.41 74.80-0.23L74.80-0.23L74.80-0.23Q73.55-0.86 73.26-1.48L73.26-1.48L73.26-1.48Q72.40-3.38 73.23-6.86L73.23-6.86L73.23-6.86Q74.06-10.35 75.27-12.20L75.27-12.20L75.27-12.20Q76.49-14.05 77.65-15.01L77.65-15.01L77.65-15.01Q78.82-15.97 80.16-15.84L80.16-15.84L80.16-15.84Q81.51-15.71 83.02-14.02ZM88.14-11.63L88.14-11.63L88.14-11.63Q91.03-15.94 92.22-18.00L92.22-18.00L92.22-18.00Q93.41-20.06 94.35-22.04L94.35-22.04L94.35-22.04Q94.56-22.51 95.27-22.45L95.27-22.45L96.24-22.33L96.24-22.33Q96.57-22.30 96.72-22.00L96.72-22.00L96.72-22.00Q96.86-21.71 96.60-21.21L96.60-21.21L96.60-21.21Q93.05-14.97 88.58-9.02L88.58-9.02L86.46-0.68L86.46-0.68Q86.28 0 85.54 0L85.54 0L84.64 0L84.64 0Q84.27 0 84.10-0.28L84.10-0.28L84.10-0.28Q83.93-0.56 84.02-0.95L84.02-0.95L86.19-9.52L86.19-9.52Q86.19-11.56 85.71-15.33L85.71-15.33L85.71-15.33Q85.23-19.10 84.74-21.06L84.74-21.06L84.74-21.06Q84.54-21.60 84.74-21.99L84.74-21.99L84.74-21.99Q84.95-22.39 85.42-22.42L85.42-22.42L86.28-22.54L86.28-22.54Q86.72-22.57 86.90-22.43L86.90-22.43L86.90-22.43Q87.08-22.30 87.19-21.80L87.19-21.80L87.19-21.80Q88.14-16.03 88.14-11.63Z" fill="url(#editing-glowing-gradient)"></path></g></g><style>text {
  font-size: 64px;
  font-family: Arial Black;
  dominant-baseline: central;
  text-anchor: middle;
}</style></svg>